<svg id="Calque_1" data-name="Calque 1" xmlns="http://www.w3.org/2000/svg" viewBox="0 0 370.44 126.45"><defs><style>.cls-1{fill:#fff;}</style></defs><polygon class="cls-1" points="108.52 28.6 116.58 28.6 116.58 57.87 131.07 57.87 131.07 64.19 108.52 64.19 108.52 28.6"/><path class="cls-1" d="M135.06,57c0-6.08,5.58-8.37,13.54-8.37h2.94v-1c0-3.09-.95-4.78-4.23-4.78-2.84,0-4.13,1.44-4.43,3.68h-6.82c.45-6.17,5.33-8.91,11.7-8.91s10.9,2.59,10.9,9.66v17h-7V61.06c-1.49,2.09-3.78,3.68-7.87,3.68-4.72,0-8.71-2.29-8.71-7.76m16.48-1.89V52.9h-2.79c-4.18,0-6.62.89-6.62,3.68,0,1.89,1.15,3.13,3.79,3.13,3.18,0,5.62-1.74,5.62-4.62"/><path class="cls-1" d="M175.63,28.6h12.74c8.42,0,13.74,3.44,13.74,10.81v.19c0,5.38-3.13,8.22-7.31,9.46l9.4,15.14h-8.56l-8.51-13.74h-3.48V64.2h-8ZM188.18,45c4,0,6.07-1.69,6.07-5.13v-.2c0-3.63-2.19-4.87-6.07-4.87h-4.53V45Z"/><path class="cls-1" d="M206.69,51.5v-.4c0-8.21,5.82-13.54,13.39-13.54,6.72,0,12.69,3.94,12.69,13.25v2H214c.2,4.34,2.54,6.82,6.47,6.82,3.34,0,5-1.44,5.43-3.63h6.82c-.85,5.63-5.33,8.76-12.44,8.76-7.87,0-13.59-4.93-13.59-13.24m19.06-3.13c-.25-3.94-2.24-5.83-5.67-5.83-3.24,0-5.43,2.14-6,5.83Zm-5.87-21.66h7.57l-5.18,7.92H217Z"/><path class="cls-1" d="M237.14,64.74h7.16c.45,2.29,2.09,3.78,5.78,3.78,4.38,0,6.57-2.28,6.57-6.37V58.22a9.76,9.76,0,0,1-8.36,4.83c-6.33,0-11.35-4.73-11.35-12.44v-.35c0-7.47,5-12.7,11.45-12.7,4.23,0,6.77,1.85,8.26,4.48V38.16h7.17v24c-.05,7.72-5.18,11.65-13.74,11.65s-12.25-3.68-12.94-9.06m19.71-14.23v-.35c0-4.43-2.34-7.12-6.27-7.12s-6.28,2.89-6.28,7.17v.4c0,4.33,2.54,7,6.13,7,3.78,0,6.42-2.68,6.42-7.11"/><path class="cls-1" d="M270.36,30.7a4.11,4.11,0,1,1,4.08,3.93,3.95,3.95,0,0,1-4.08-3.93m.54,7.46h7.17v26H270.9Z"/><path class="cls-1" d="M283.54,51.45v-.4c0-8.16,5.92-13.49,13.74-13.49S311,42.79,311,50.9v.4c0,8.22-5.92,13.44-13.73,13.44s-13.69-5.17-13.69-13.29m20.11-.1V51c0-5-2.34-8-6.37-8s-6.38,2.89-6.38,7.86v.4c0,5,2.29,8,6.38,8s6.37-3,6.37-7.92"/><path class="cls-1" d="M316.45,38.16h7.22v4.13c1.29-2.59,4.13-4.72,8.46-4.72,5.13,0,8.76,3.08,8.76,10V64.19h-7.22V48.66c0-3.53-1.39-5.22-4.58-5.22s-5.42,1.89-5.42,5.72v15h-7.22Z"/><path class="cls-1" d="M114,78.63h2.6l5.51,16.29h-2l-1.59-4.69h-6.72l-1.58,4.69h-1.87Zm-1.62,10H118l-2.82-8.38Z"/><path class="cls-1" d="M123.55,90.55V83h1.89v7.46c0,2.09.89,3,2.76,3a3.13,3.13,0,0,0,3.28-3.26V83h1.89V94.92h-1.89V93a4.06,4.06,0,0,1-3.78,2.1c-2.37,0-4.15-1.3-4.15-4.58"/><polygon class="cls-1" points="135.15 83 137.2 83 140.73 93.01 144.22 83 146.18 83 141.89 94.92 139.48 94.92 135.15 83"/><path class="cls-1" d="M146.73,89.09v-.18c0-3.61,2.3-6.11,5.59-6.11,2.75,0,5.35,1.66,5.35,5.92v.62h-9c.09,2.71,1.39,4.22,3.83,4.22,1.85,0,2.92-.69,3.17-2.08h1.89c-.41,2.39-2.39,3.65-5.08,3.65-3.37,0-5.77-2.37-5.77-6m9-1.28c-.18-2.46-1.45-3.44-3.41-3.44s-3.24,1.32-3.56,3.44Z"/><path class="cls-1" d="M160,83h1.89v2.14a4.17,4.17,0,0,1,3.92-2.34v1.78c-2.39.11-3.92.86-3.92,3.8v6.54H160Z"/><path class="cls-1" d="M166.89,95.61h1.93c.28,1.36,1.42,2.07,3.45,2.07,2.34,0,3.83-1.12,3.83-3.67V92.28a5,5,0,0,1-4,2.25,5.37,5.37,0,0,1-5.42-5.65v-.16a5.64,5.64,0,0,1,5.56-5.92,4.27,4.27,0,0,1,3.9,2.12V83H178V94.12c0,3.47-2.37,5.16-5.7,5.16-3.53,0-5.08-1.67-5.4-3.67m9.27-6.86v-.16c0-2.67-1.45-4.22-3.78-4.22s-3.78,1.75-3.78,4.26v.18c0,2.6,1.66,4.15,3.67,4.15,2.21,0,3.89-1.55,3.89-4.21"/><path class="cls-1" d="M181,83h1.89v1.89a4.1,4.1,0,0,1,3.83-2.09c2.46,0,4.19,1.34,4.19,4.81v7.31h-1.89V87.47c0-2.1-.89-3-2.81-3a3.13,3.13,0,0,0-3.32,3.26v7.22H181Z"/><path class="cls-1" d="M193.16,89.09v-.18c0-3.61,2.3-6.11,5.59-6.11,2.76,0,5.35,1.66,5.35,5.92v.62h-9c.09,2.71,1.39,4.22,3.83,4.22,1.85,0,2.92-.69,3.17-2.08H204c-.41,2.39-2.39,3.65-5.08,3.65-3.37,0-5.77-2.37-5.77-6m9-1.28c-.19-2.46-1.46-3.44-3.42-3.44s-3.24,1.32-3.56,3.44Z"/><rect class="cls-1" x="206.37" y="87.77" width="4.88" height="1.78"/><path class="cls-1" d="M214.5,78.63h4.9c3.12,0,5.69,1.27,5.69,4.53v.09c0,2.69-1.8,4-4,4.45l5,7.22h-2.21L219,87.83h-2.51v7.09h-2Zm5,7.63c2.33,0,3.58-1,3.58-3v-.09c0-2.21-1.37-2.94-3.58-2.94h-3.05v6Z"/><path class="cls-1" d="M228,77.3h1.89v7.59a4.11,4.11,0,0,1,3.83-2.09c2.46,0,4.19,1.34,4.19,4.81v7.31H236V87.47c0-2.1-.89-3-2.8-3a3.13,3.13,0,0,0-3.33,3.26v7.22H228Z"/><path class="cls-1" d="M240.08,89.06v-.18a5.86,5.86,0,1,1,11.72,0V89a5.86,5.86,0,1,1-11.72,0m9.76,0v-.15c0-2.76-1.53-4.54-3.9-4.54s-3.9,1.78-3.9,4.51v.18c0,2.72,1.48,4.5,3.9,4.5s3.9-1.81,3.9-4.5M245.1,77.67h1.71L249.24,81h-1.39l-1.93-1.71L244,81h-1.34Z"/><path class="cls-1" d="M254.11,83H256v1.89a4.09,4.09,0,0,1,3.83-2.09c2.46,0,4.19,1.34,4.19,4.81v7.31h-1.89V87.47c0-2.1-.89-3-2.81-3A3.13,3.13,0,0,0,256,87.7v7.22h-1.9Z"/><path class="cls-1" d="M266.25,89.09v-.18c0-3.61,2.3-6.11,5.59-6.11,2.75,0,5.35,1.66,5.35,5.92v.62h-9c.09,2.71,1.39,4.22,3.83,4.22,1.85,0,2.92-.69,3.17-2.08h1.89c-.41,2.39-2.39,3.65-5.08,3.65-3.37,0-5.77-2.37-5.77-6m9-1.28c-.19-2.46-1.46-3.44-3.42-3.44s-3.24,1.32-3.56,3.44Z"/><rect class="cls-1" x="279.46" y="87.77" width="4.88" height="1.78"/><path class="cls-1" d="M291.43,78.63H294l5.52,16.29h-2L296,90.23h-6.72l-1.58,4.69h-1.86Zm-1.62,10h5.66l-2.83-8.38Z"/><rect class="cls-1" x="301.55" y="77.3" width="1.91" height="17.62"/><path class="cls-1" d="M306.5,83h1.89v2a4.92,4.92,0,0,1,4-2.21c3.12,0,5.42,2.28,5.42,6V89c0,3.65-2.14,6.16-5.42,6.16a4.53,4.53,0,0,1-4-2.17v6.11H306.5Zm9.39,6.06v-.18c0-3-1.66-4.51-3.67-4.51-2.21,0-3.9,1.46-3.9,4.51v.18c0,3.06,1.6,4.5,3.93,4.5s3.64-1.6,3.64-4.5"/><path class="cls-1" d="M319.44,89.09v-.18c0-3.61,2.3-6.11,5.58-6.11,2.76,0,5.36,1.66,5.36,5.92v.62h-9c.09,2.71,1.39,4.22,3.83,4.22,1.85,0,2.92-.69,3.17-2.08h1.89c-.41,2.39-2.39,3.65-5.08,3.65-3.38,0-5.77-2.37-5.77-6m9-1.28c-.18-2.46-1.46-3.44-3.42-3.44s-3.23,1.32-3.55,3.44Z"/><path class="cls-1" d="M331.84,91.25h1.85c.14,1.42.89,2.3,2.8,2.3s2.6-.61,2.6-1.89-.93-1.66-2.78-2c-3.1-.57-4.15-1.44-4.15-3.51s2.17-3.35,4-3.35c2.14,0,4,.86,4.3,3.44h-1.82c-.27-1.3-1-1.87-2.51-1.87s-2.25.68-2.25,1.71.59,1.5,2.78,1.89c2.46.46,4.19,1,4.19,3.53,0,2.17-1.48,3.63-4.38,3.63s-4.55-1.44-4.67-3.88"/><path class="cls-1" d="M59.35,28.54A33.18,33.18,0,1,0,92.53,61.72,33.18,33.18,0,0,0,59.35,28.54Zm2,14h3.17L78.06,65.83l-3.17,1.84-12-20.59L57,57.22l-3.16-1.84ZM39.94,75.1l-3.16-1.85,8.45-14.47.13-.23h3.27A10.28,10.28,0,0,0,64,58.12l2.71,2.45a13.92,13.92,0,0,1-19.32,1.78l-1.31,2.24h0ZM80,75.1H46.52V71.44H80Z"/></svg>